<?xml version="1.0" encoding="UTF-8" standalone="no"?>
<!-- Created with Inkscape (http://www.inkscape.org/) -->

<svg
   xmlns:dc="http://purl.org/dc/elements/1.1/"
   xmlns:cc="http://creativecommons.org/ns#"
   xmlns:rdf="http://www.w3.org/1999/02/22-rdf-syntax-ns#"
   xmlns:svg="http://www.w3.org/2000/svg"
   xmlns="http://www.w3.org/2000/svg"
   xmlns:sodipodi="http://sodipodi.sourceforge.net/DTD/sodipodi-0.dtd"
   xmlns:inkscape="http://www.inkscape.org/namespaces/inkscape"
   width="7.7596879mm"
   height="7.5550942mm"
   viewBox="0 0 7.7596879 7.5550942"
   version="1.1"
   id="svg8"
   sodipodi:docname="logo paths.svg"
   inkscape:version="0.92.4 5da689c313, 2019-01-14">
  <defs
     id="defs2" />
  <sodipodi:namedview
     id="base"
     pagecolor="#ffffff"
     bordercolor="#666666"
     borderopacity="1.0"
     inkscape:pageopacity="0.0"
     inkscape:pageshadow="2"
     inkscape:zoom="7.9195959"
     inkscape:cx="-0.47717765"
     inkscape:cy="15.714332"
     inkscape:document-units="mm"
     inkscape:current-layer="layer1"
     showgrid="false"
     inkscape:window-width="1920"
     inkscape:window-height="1006"
     inkscape:window-x="0"
     inkscape:window-y="45"
     inkscape:window-maximized="1" />
  <metadata
     id="metadata5">
    <rdf:RDF>
      <cc:Work
         rdf:about="">
        <dc:format>image/svg+xml</dc:format>
        <dc:type
           rdf:resource="http://purl.org/dc/dcmitype/StillImage" />
        <dc:title></dc:title>
      </cc:Work>
    </rdf:RDF>
  </metadata>
  <g
     inkscape:label="Layer 1"
     inkscape:groupmode="layer"
     id="layer1"
     transform="translate(-49.408207,-163.82615)">
    <g
       aria-label="R"
       style="font-style:italic;font-variant:normal;font-weight:normal;font-stretch:normal;font-size:10.58333302px;line-height:1.25;font-family:'Droid Serif';-inkscape-font-specification:'Droid Serif, Italic';font-variant-ligatures:normal;font-variant-caps:normal;font-variant-numeric:normal;font-feature-settings:normal;text-align:start;letter-spacing:0px;word-spacing:0px;writing-mode:lr-tb;text-anchor:start;opacity:0.92000002;fill:#a5a5a5;fill-opacity:1;stroke:none;stroke-width:0.26458332"
       id="text16">
      <path
         d="m 53.157804,168.04811 -0.465088,2.17041 q -0.04651,0.21704 -0.04651,0.29456 0,0.42374 0.764811,0.42374 h 0.3514 l -0.09818,0.44442 h -3.281454 l 0.09819,-0.44442 h 0.134358 q 0.5271,0 0.728638,-0.18603 0.206706,-0.18604 0.279053,-0.52193 l 1.111043,-5.23999 q 0.04134,-0.19637 0.04134,-0.29456 0,-0.42375 -0.759643,-0.42375 h -0.139527 l 0.09302,-0.44441 h 2.775024 q 2.423625,0 2.423625,1.79834 0,1.74666 -1.958537,2.21175 l 0.764811,2.26343 q 0.186035,0.5426 0.377238,0.69246 0.191203,0.14469 0.490926,0.14469 h 0.08268 l -0.08268,0.44442 h -0.139526 q -0.909505,0 -1.286743,-0.23771 -0.377238,-0.24288 -0.599447,-1.00252 l -0.609782,-2.0929 z m 0.103353,-0.49609 h 0.816487 q 0.945679,0 1.457276,-0.48059 0.511596,-0.48576 0.511596,-1.38493 0,-0.7028 -0.315226,-1.02836 -0.310059,-0.32556 -1.069702,-0.32556 h -0.72347 z"
         style="font-style:italic;font-variant:normal;font-weight:normal;font-stretch:normal;font-size:10.58333302px;font-family:'Droid Serif';-inkscape-font-specification:'Droid Serif, Italic';font-variant-ligatures:normal;font-variant-caps:normal;font-variant-numeric:normal;font-feature-settings:normal;text-align:start;writing-mode:lr-tb;text-anchor:start;fill:#a5a5a5;fill-opacity:1;stroke-width:0.26458332"
         id="path4603" />
    </g>
  </g>
  <g
     inkscape:groupmode="layer"
     id="layer2"
     inkscape:label="Layer 2"
     transform="translate(-49.408207,-163.82615)">
    <g
       aria-label="n"
       style="font-style:normal;font-variant:normal;font-weight:normal;font-stretch:normal;font-size:10.58333302px;line-height:1.25;font-family:'Droid Serif';-inkscape-font-specification:'Droid Serif, Normal';font-variant-ligatures:normal;font-variant-caps:normal;font-variant-numeric:normal;font-feature-settings:normal;text-align:start;letter-spacing:0px;word-spacing:0px;writing-mode:lr-tb;text-anchor:start;fill:#489370;fill-opacity:1;stroke:none;stroke-width:0.26458332"
       id="text12">
      <path
         d="m 52.255578,170.9324 v 0.44442 h -2.847371 v -0.44442 h 0.08785 q 0.180867,0 0.335897,-0.0258 0.160197,-0.0258 0.273885,-0.10335 0.118856,-0.0827 0.186035,-0.23255 0.07235,-0.14986 0.07235,-0.39791 v -3.30212 q 0,-0.23254 -0.07235,-0.37207 -0.06718,-0.14469 -0.186035,-0.22221 -0.118856,-0.0775 -0.279053,-0.10335 -0.155029,-0.0258 -0.330729,-0.0258 h -0.03101 v -0.44442 h 1.71049 l 0.139526,0.85783 h 0.05168 q 0.165364,-0.29455 0.346232,-0.48059 0.186035,-0.1912 0.387573,-0.29455 0.206706,-0.10852 0.434082,-0.1447 0.232544,-0.0413 0.485758,-0.0413 0.41858,0 0.744141,0.12402 0.330729,0.11886 0.558105,0.37207 0.232544,0.24805 0.3514,0.64079 0.124024,0.39274 0.124024,0.93535 v 2.50113 q 0,0.24805 0.05684,0.39791 0.06201,0.14987 0.170532,0.23255 0.10852,0.0775 0.258382,0.10335 0.149862,0.0258 0.325562,0.0258 h 0.03617 v 0.44442 h -1.844848 v -3.65353 q 0,-0.34623 -0.06201,-0.61495 -0.06201,-0.26871 -0.201538,-0.45475 -0.134359,-0.18604 -0.356568,-0.27905 -0.222208,-0.0982 -0.542602,-0.0982 -0.361735,0 -0.609782,0.13953 -0.242879,0.13952 -0.392741,0.37724 -0.149862,0.23771 -0.217041,0.54777 -0.06201,0.31006 -0.06201,0.65112 v 2.23242 q 0,0.23255 0.06718,0.37724 0.07235,0.13953 0.191203,0.21187 0.118855,0.0724 0.273885,0.0982 0.160197,0.0207 0.335896,0.0207 z"
         style="font-style:normal;font-variant:normal;font-weight:normal;font-stretch:normal;font-size:10.58333302px;font-family:'Droid Serif';-inkscape-font-specification:'Droid Serif, Normal';font-variant-ligatures:normal;font-variant-caps:normal;font-variant-numeric:normal;font-feature-settings:normal;text-align:start;writing-mode:lr-tb;text-anchor:start;fill:#489370;fill-opacity:1;stroke-width:0.26458332"
         id="path4600" />
    </g>
  </g>
</svg>
