<svg xmlns="http://www.w3.org/2000/svg" width="29.328" height="28.555" viewBox="0 0 7.76 7.555"><g style="line-height:1.25;-inkscape-font-specification:'Droid Serif, Italic';font-variant-ligatures:normal;font-variant-caps:normal;font-variant-numeric:normal;font-feature-settings:normal;text-align:start"><path d="M3.75 4.222l-.465 2.17q-.047.217-.047.295 0 .424.765.424h.351l-.098.444H.975l.098-.444h.134q.527 0 .729-.186.206-.186.279-.522l1.11-5.24q.042-.197.042-.295 0-.424-.76-.424h-.139L2.561 0h2.775Q7.76 0 7.76 1.798q0 1.747-1.959 2.212l.765 2.264q.186.542.377.692.191.145.491.145h.083l-.083.444h-.14q-.909 0-1.286-.238-.377-.243-.6-1.002l-.61-2.093zm.103-.496h.816q.946 0 1.458-.48.511-.486.511-1.386 0-.702-.315-1.028-.31-.326-1.07-.326H4.53z" style="-inkscape-font-specification:'Droid Serif, Italic';font-variant-ligatures:normal;font-variant-caps:normal;font-variant-numeric:normal;font-feature-settings:normal;text-align:start" aria-label="R" font-style="italic" font-weight="400" font-size="10.583" font-family="Droid Serif" letter-spacing="0" word-spacing="0" opacity=".92" fill="#a5a5a5" stroke-width=".265"/></g><g style="line-height:1.25;-inkscape-font-specification:'Droid Serif, Normal';font-variant-ligatures:normal;font-variant-caps:normal;font-variant-numeric:normal;font-feature-settings:normal;text-align:start"><path d="M2.847 7.106v.445H0v-.445h.088q.18 0 .336-.026.16-.025.274-.103.118-.083.186-.232.072-.15.072-.398V3.045q0-.233-.072-.373-.068-.144-.186-.222-.12-.077-.28-.103-.154-.026-.33-.026H.057v-.444h1.71l.14.857h.052q.165-.294.346-.48.186-.191.387-.295.207-.108.434-.144.233-.042.486-.042.419 0 .744.124.331.12.558.372.233.248.352.641.124.393.124.936v2.5q0 .249.057.399.062.15.17.232.109.078.259.104.15.025.325.025h.036v.445H4.392V3.897q0-.346-.062-.615-.062-.268-.201-.454-.134-.187-.357-.28-.222-.098-.542-.098-.362 0-.61.14-.243.14-.393.377-.15.238-.217.548-.062.31-.062.65v2.233q0 .233.067.378.073.14.192.211.118.073.273.099.16.02.336.02z" style="-inkscape-font-specification:'Droid Serif, Normal';font-variant-ligatures:normal;font-variant-caps:normal;font-variant-numeric:normal;font-feature-settings:normal;text-align:start" aria-label="n" font-weight="400" font-size="10.583" font-family="Droid Serif" letter-spacing="0" word-spacing="0" fill="#489370" stroke-width=".265"/></g></svg>